<svg xmlns="http://www.w3.org/2000/svg" viewBox="150 431.24 700 137.53"><defs/><path fill="#02bac3" transform="matrix(0.315353470978592 0 0 0.315353470978592 27.043537896345615 19.029070953677728)" d="M 751.80045589827 1652.5303874357 C 785.80045589827 1614.5303874357 804.50045589827 1565.7303874357 804.50045589827 1514.4303874357 C 804.50045589827 1400.1303874357 711.50045589827 1307.1303874357 597.20045589827 1307.1303874357 C 482.90045589827 1307.1303874357 389.90045589827 1400.1303874357 389.90045589827 1514.4303874357 C 389.90045589827 1575.5303874357 416.50045589827 1630.5303874357 458.70045589827 1668.4303874357 C 449.50045589827 1683.0303874357 439.50045589827 1697.1303874357 428.50045589827 1710.4303874357 C 449.50045589827 1709.5303874357 470.60045589827 1706.6303874357 491.10045589827 1701.8303874357 C 513.90045589827 1696.4303874357 536.30045589827 1688.4303874357 556.50045589827 1676.7303874357 C 576.70045589827 1665.1303874357 594.70045589827 1649.3303874357 606.80045589827 1629.4303874357 C 612.90045589827 1619.5303874357 617.30045589827 1608.6303874357 620.40045589827 1597.4303874357 C 623.60045589827 1586.2303874357 625.50045589827 1574.5303874357 626.90045589827 1562.7303874357 C 628.30045589827 1574.6303874357 627.60045589827 1586.8303874357 625.00045589827 1598.6303874357 C 622.30045589827 1610.4303874357 617.70045589827 1621.8303874357 611.60045589827 1632.3303874357 C 599.30045589827 1653.4303874357 580.70045589827 1670.3303874357 560.00045589827 1682.6303874357 C 539.10045589827 1695.0303874357 516.20045589827 1703.2303874357 492.80045589827 1708.9303874357 C 489.30045589827 1709.8303874357 485.80045589827 1710.5303874357 482.20045589827 1711.2303874357 C 497.30045589827 1711.2303874357 511.60045589827 1710.4303874357 524.90045589827 1708.7303874357 C 547.40045589827 1717.1303874357 571.80045589827 1721.8303874357 597.20045589827 1721.8303874357 C 620.60045589827 1721.8303874357 643.60045589827 1717.9303874357 665.50045589827 1710.3303874357 L 745.00045589827 1741.4303874357 C 748.10045589827 1742.6303874357 751.20045589827 1743.2303874357 754.20045589827 1743.2303874357 C 760.80045589827 1743.2303874357 766.80045589827 1740.2303874357 770.50045589827 1735.1303874357 C 774.50045589827 1729.6303874357 775.30045589827 1722.2303874357 772.80045589827 1714.9303874357 L 751.80045589827 1652.5303874357 Z M 752.50045589827 1722.2303874357 L 665.80045589827 1688.3303874357 L 662.10045589827 1689.7303874357 C 641.30045589827 1697.4303874357 619.50045589827 1701.3303874357 597.20045589827 1701.3303874357 C 587.60045589827 1701.3303874357 578.20045589827 1700.5303874357 569.00045589827 1699.1303874357 C 596.60045589827 1690.0303874357 618.50045589827 1675.8303874357 634.40045589827 1656.5303874357 C 676.50045589827 1605.4303874357 663.40045589827 1533.3303874357 659.70045589827 1516.8303874357 C 656.30045589827 1518.4303874357 652.70045589827 1519.8303874357 648.80045589827 1520.5303874357 C 643.50045589827 1521.6303874357 637.80045589827 1521.7303874357 632.40045589827 1520.4303874357 C 628.40045589827 1519.4303874357 624.60045589827 1517.7303874357 621.20045589827 1515.5303874357 L 613.10045589827 1528.2303874357 C 603.40045589827 1543.5303874357 603.40045589827 1543.5303874357 602.20045589827 1543.5303874357 L 601.00045589827 1543.5303874357 L 583.20045589827 1515.5303874357 C 579.80045589827 1517.7303874357 576.00045589827 1519.4303874357 572.00045589827 1520.4303874357 C 566.60045589827 1521.7303874357 561.00045589827 1521.7303874357 555.60045589827 1520.5303874357 C 550.20045589827 1519.4303874357 545.20045589827 1517.2303874357 540.60045589827 1514.7303874357 C 536.70045589827 1512.5303874357 532.90045589827 1509.8303874357 529.60045589827 1506.7303874357 C 524.60045589827 1524.4303874357 518.70045589827 1541.7303874357 512.30045589827 1558.9303874357 C 505.20045589827 1577.7303874357 497.30045589827 1596.2303874357 488.50045589827 1614.3303874357 C 482.50045589827 1626.6303874357 476.20045589827 1638.7303874357 469.40045589827 1650.5303874357 C 433.10045589827 1616.5303874357 410.40045589827 1568.1303874357 410.40045589827 1514.4303874357 C 410.40045589827 1411.4303874357 494.20045589827 1327.6303874357 597.20045589827 1327.6303874357 C 700.20045589827 1327.6303874357 784.00045589827 1411.4303874357 784.00045589827 1514.4303874357 C 784.00045589827 1562.5303874357 765.80045589827 1608.1303874357 732.70045589827 1643.0303874357 L 728.50045589827 1647.5303874357 L 753.40045589827 1721.3303874357 C 753.60045589827 1721.9303874357 753.70045589827 1722.3303874357 753.70045589827 1722.6303874357 C 753.50045589827 1722.5303874357 753.00045589827 1722.4303874357 752.50045589827 1722.2303874357 Z"/><path fill="#02bac3" transform="matrix(0.315353470978592 0 0 0.315353470978592 27.043537896345615 19.029070953677728)" d="M 688.40045589827 1401.9303874357 C 688.40045589827 1396.9303874357 687.80045589827 1392.0303874357 686.40045589827 1387.2303874357 C 685.70045589827 1384.7303874357 684.80045589827 1382.2303874357 683.80045589827 1379.9303874357 C 683.50045589827 1381.1303874357 683.10045589827 1382.4303874357 682.70045589827 1383.5303874357 C 681.40045589827 1387.0303874357 679.70045589827 1390.2303874357 677.80045589827 1393.3303874357 C 675.90045589827 1396.4303874357 673.80045589827 1399.3303874357 671.50045589827 1402.1303874357 C 669.20045589827 1404.9303874357 666.90045589827 1407.5303874357 664.30045589827 1410.1303874357 L 662.60045589827 1411.8303874357 L 660.90045589827 1410.0303874357 C 657.50045589827 1406.3303874357 653.20045589827 1403.4303874357 648.50045589827 1401.1303874357 C 643.80045589827 1398.8303874357 638.80045589827 1397.1303874357 633.70045589827 1395.7303874357 C 628.60045589827 1394.4303874357 623.30045589827 1393.5303874357 618.10045589827 1392.9303874357 C 612.80045589827 1392.3303874357 607.60045589827 1392.1303874357 602.20045589827 1392.1303874357 C 596.80045589827 1392.1303874357 591.60045589827 1392.4303874357 586.30045589827 1392.9303874357 C 581.00045589827 1393.5303874357 575.80045589827 1394.4303874357 570.70045589827 1395.7303874357 C 565.60045589827 1397.0303874357 560.60045589827 1398.7303874357 555.90045589827 1401.1303874357 C 551.20045589827 1403.4303874357 546.90045589827 1406.3303874357 543.50045589827 1410.0303874357 L 541.80045589827 1411.8303874357 L 540.10045589827 1410.1303874357 C 537.50045589827 1407.5303874357 535.20045589827 1404.9303874357 532.90045589827 1402.1303874357 C 530.70045589827 1399.3303874357 528.50045589827 1396.4303874357 526.60045589827 1393.3303874357 C 524.70045589827 1390.2303874357 523.00045589827 1387.0303874357 521.70045589827 1383.5303874357 C 521.30045589827 1382.3303874357 520.90045589827 1381.1303874357 520.60045589827 1379.9303874357 C 519.50045589827 1382.3303874357 518.60045589827 1384.8303874357 518.00045589827 1387.2303874357 C 516.70045589827 1392.0303874357 516.00045589827 1396.9303874357 516.00045589827 1401.9303874357 C 516.00045589827 1411.8303874357 519.10045589827 1421.6303874357 524.00045589827 1430.3303874357 L 524.60045589827 1431.3303874357 L 524.10045589827 1432.4303874357 L 524.10045589827 1432.4303874357 C 522.40045589827 1436.9303874357 521.00045589827 1441.8303874357 520.00045589827 1446.6303874357 C 519.00045589827 1451.5303874357 518.30045589827 1456.4303874357 518.10045589827 1461.3303874357 C 517.70045589827 1471.1303874357 519.20045589827 1481.0303874357 523.50045589827 1489.6303874357 C 527.70045589827 1498.2303874357 534.90045589827 1505.2303874357 543.40045589827 1509.9303874357 C 547.70045589827 1512.3303874357 552.10045589827 1514.2303874357 556.80045589827 1515.1303874357 C 561.40045589827 1516.1303874357 566.20045589827 1516.1303874357 570.70045589827 1515.1303874357 C 579.80045589827 1513.1303874357 587.70045589827 1506.4303874357 591.90045589827 1498.0303874357 C 594.00045589827 1493.8303874357 595.20045589827 1489.1303874357 595.10045589827 1484.4303874357 C 595.10045589827 1479.6303874357 594.30045589827 1474.8303874357 592.70045589827 1470.2303874357 C 589.60045589827 1461.0303874357 583.40045589827 1452.9303874357 575.40045589827 1447.5303874357 C 567.40045589827 1442.0303874357 557.40045589827 1439.5303874357 547.20045589827 1440.6303874357 C 556.90045589827 1437.1303874357 568.40045589827 1438.5303874357 577.60045589827 1444.1303874357 C 586.80045589827 1449.6303874357 593.70045589827 1458.6303874357 597.20045589827 1468.6303874357 C 599.00045589827 1473.6303874357 599.90045589827 1479.0303874357 600.00045589827 1484.3303874357 C 600.20045589827 1489.8303874357 598.80045589827 1495.3303874357 596.40045589827 1500.2303874357 C 594.10045589827 1505.1303874357 590.70045589827 1509.4303874357 586.50045589827 1512.9303874357 L 602.00045589827 1537.2303874357 C 605.90045589827 1531.1303874357 614.80045589827 1517.1303874357 617.50045589827 1512.8303874357 C 613.40045589827 1509.3303874357 610.00045589827 1504.9303874357 607.70045589827 1500.1303874357 C 605.30045589827 1495.2303874357 604.00045589827 1489.7303874357 604.10045589827 1484.2303874357 C 604.20045589827 1478.8303874357 605.20045589827 1473.5303874357 606.90045589827 1468.5303874357 C 610.40045589827 1458.4303874357 617.30045589827 1449.4303874357 626.50045589827 1444.0303874357 C 635.60045589827 1438.5303874357 647.20045589827 1437.0303874357 656.90045589827 1440.5303874357 C 646.70045589827 1439.4303874357 636.70045589827 1441.9303874357 628.70045589827 1447.4303874357 C 620.70045589827 1452.8303874357 614.50045589827 1460.9303874357 611.40045589827 1470.1303874357 C 609.80045589827 1474.7303874357 609.00045589827 1479.5303874357 609.00045589827 1484.3303874357 C 608.90045589827 1489.0303874357 610.10045589827 1493.6303874357 612.20045589827 1497.9303874357 C 616.40045589827 1506.4303874357 624.30045589827 1513.0303874357 633.40045589827 1515.0303874357 C 637.90045589827 1516.0303874357 642.70045589827 1516.0303874357 647.30045589827 1515.0303874357 C 651.90045589827 1514.0303874357 656.40045589827 1512.1303874357 660.70045589827 1509.8303874357 C 669.20045589827 1505.1303874357 676.40045589827 1498.2303874357 680.60045589827 1489.5303874357 C 684.90045589827 1480.9303874357 686.40045589827 1471.0303874357 686.00045589827 1461.2303874357 C 685.80045589827 1456.3303874357 685.10045589827 1451.4303874357 684.10045589827 1446.5303874357 C 683.10045589827 1441.7303874357 681.70045589827 1436.8303874357 680.00045589827 1432.3303874357 L 680.00045589827 1432.3303874357 L 679.50045589827 1431.2303874357 L 680.10045589827 1430.2303874357 C 685.40045589827 1421.6303874357 688.40045589827 1411.8303874357 688.40045589827 1401.9303874357 Z M 563.90045589827 1453.8303874357 C 571.00045589827 1453.8303874357 576.70045589827 1459.5303874357 576.70045589827 1466.6303874357 C 576.70045589827 1473.7303874357 571.00045589827 1479.4303874357 563.90045589827 1479.4303874357 C 556.80045589827 1479.4303874357 551.10045589827 1473.7303874357 551.10045589827 1466.6303874357 C 551.10045589827 1459.5303874357 556.80045589827 1453.8303874357 563.90045589827 1453.8303874357 Z M 640.70045589827 1479.4303874357 C 633.60045589827 1479.4303874357 627.90045589827 1473.7303874357 627.90045589827 1466.6303874357 C 627.90045589827 1459.5303874357 633.60045589827 1453.8303874357 640.70045589827 1453.8303874357 C 647.80045589827 1453.8303874357 653.50045589827 1459.5303874357 653.50045589827 1466.6303874357 C 653.50045589827 1473.7303874357 647.70045589827 1479.4303874357 640.70045589827 1479.4303874357 Z"/><path id="text" fill="#02bac3" transform="matrix(0.9575928078609902 0 0 0.9575928078609901 195.18892652688731 66.50480524388573)" d="M 170.01751496053 452.83661756929 C 168.22551496053 456.06861756929 165.47351496053 458.67661756929 161.76151496053 460.66061756929 C 158.04951496053 462.64461756929 153.44151496053 463.63661756929 147.93751496053 463.63661756929 L 137.76151496053 463.63661756929 L 137.76151496053 487.82861756929 L 121.34551496053 487.82861756929 L 121.34551496053 420.43661756929 L 147.93751496053 420.43661756929 C 153.31351496053 420.43661756929 157.85751496053 421.36461756929 161.56951496053 423.22061756929 C 165.28151496053 425.07661756929 168.06551496053 427.63661756929 169.92151496053 430.90061756929 C 171.77751496053 434.16461756929 172.70551496053 437.90861756929 172.70551496053 442.13261756929 C 172.70551496053 446.03661756929 171.80951496053 449.60461756929 170.01751496053 452.83661756929 Z M 153.69751496053 448.37261756929 C 155.23351496053 446.90061756929 156.00151496053 444.82061756929 156.00151496053 442.13261756929 C 156.00151496053 439.44461756929 155.23351496053 437.36461756929 153.69751496053 435.89261756929 C 152.16151496053 434.42061756929 149.82551496053 433.68461756929 146.68951496053 433.68461756929 L 137.76151496053 433.68461756929 L 137.76151496053 450.58061756929 L 146.68951496053 450.58061756929 C 149.82551496053 450.58061756929 152.16151496053 449.84461756929 153.69751496053 448.37261756929 Z M 228.96151496053 439.78061756929 C 232.67351496053 443.84461756929 234.52951496053 449.42861756929 234.52951496053 456.53261756929 L 234.52951496053 487.82861756929 L 218.20951496053 487.82861756929 L 218.20951496053 458.74061756929 C 218.20951496053 455.15661756929 217.28151496053 452.37261756929 215.42551496053 450.38861756929 C 213.56951496053 448.40461756929 211.07351496053 447.41261756929 207.93751496053 447.41261756929 C 204.80151496053 447.41261756929 202.30551496053 448.40461756929 200.44951496053 450.38861756929 C 198.59351496053 452.37261756929 197.66551496053 455.15661756929 197.66551496053 458.74061756929 L 197.66551496053 487.82861756929 L 181.24951496053 487.82861756929 L 181.24951496053 416.78861756929 L 197.66551496053 416.78861756929 L 197.66551496053 441.46061756929 C 199.32951496053 439.09261756929 201.60151496053 437.20461756929 204.48151496053 435.79661756929 C 207.36151496053 434.38861756929 210.59351496053 433.68461756929 214.17751496053 433.68461756929 C 220.32151496053 433.68461756929 225.24951496053 435.71661756929 228.96151496053 439.78061756929 Z M 269.56951496053 436.22861756929 C 272.44951496053 434.53261756929 275.64951496053 433.68461756929 279.16951496053 433.68461756929 L 279.16951496053 451.06061756929 L 274.65751496053 451.06061756929 C 270.56151496053 451.06061756929 267.48951496053 451.94061756929 265.44151496053 453.70061756929 C 263.39351496053 455.46061756929 262.36951496053 458.54861756929 262.36951496053 462.96461756929 L 262.36951496053 487.82861756929 L 245.95351496053 487.82861756929 L 245.95351496053 434.26061756929 L 262.36951496053 434.26061756929 L 262.36951496053 443.18861756929 C 264.28951496053 440.24461756929 266.68951496053 437.92461756929 269.56951496053 436.22861756929 Z M 286.89751496053 446.45261756929 C 288.97751496053 442.29261756929 291.80951496053 439.09261756929 295.39351496053 436.85261756929 C 298.97751496053 434.61261756929 302.97751496053 433.49261756929 307.39351496053 433.49261756929 C 311.16951496053 433.49261756929 314.48151496053 434.26061756929 317.32951496053 435.79661756929 C 320.17751496053 437.33261756929 322.36951496053 439.34861756929 323.90551496053 441.84461756929 L 323.90551496053 434.26061756929 L 340.32151496053 434.26061756929 L 340.32151496053 487.82861756929 L 323.90551496053 487.82861756929 L 323.90551496053 480.24461756929 C 322.30551496053 482.74061756929 320.08151496053 484.75661756929 317.23351496053 486.29261756929 C 314.38551496053 487.82861756929 311.07351496053 488.59661756929 307.29751496053 488.59661756929 C 302.94551496053 488.59661756929 298.97751496053 487.46061756929 295.39351496053 485.18861756929 C 291.80951496053 482.91661756929 288.97751496053 479.68461756929 286.89751496053 475.49261756929 C 284.81751496053 471.30061756929 283.77751496053 466.45261756929 283.77751496053 460.94861756929 C 283.77751496053 455.44461756929 284.81751496053 450.61261756929 286.89751496053 446.45261756929 Z M 320.49751496053 451.34861756929 C 318.22551496053 448.98061756929 315.45751496053 447.79661756929 312.19351496053 447.79661756929 C 308.92951496053 447.79661756929 306.16151496053 448.96461756929 303.88951496053 451.30061756929 C 301.61751496053 453.63661756929 300.48151496053 456.85261756929 300.48151496053 460.94861756929 C 300.48151496053 465.04461756929 301.61751496053 468.29261756929 303.88951496053 470.69261756929 C 306.16151496053 473.09261756929 308.92951496053 474.29261756929 312.19351496053 474.29261756929 C 315.45751496053 474.29261756929 318.22551496053 473.10861756929 320.49751496053 470.74061756929 C 322.76951496053 468.37261756929 323.90551496053 465.14061756929 323.90551496053 461.04461756929 C 323.90551496053 456.94861756929 322.76951496053 453.71661756929 320.49751496053 451.34861756929 Z M 361.53751496053 486.19661756929 C 357.88951496053 484.59661756929 355.00951496053 482.40461756929 352.89751496053 479.62061756929 C 350.78551496053 476.83661756929 349.60151496053 473.71661756929 349.34551496053 470.26061756929 L 365.56951496053 470.26061756929 C 365.76151496053 472.11661756929 366.62551496053 473.62061756929 368.16151496053 474.77261756929 C 369.69751496053 475.92461756929 371.58551496053 476.50061756929 373.82551496053 476.50061756929 C 375.87351496053 476.50061756929 377.45751496053 476.10061756929 378.57751496053 475.30061756929 C 379.69751496053 474.50061756929 380.25751496053 473.46061756929 380.25751496053 472.18061756929 C 380.25751496053 470.64461756929 379.45751496053 469.50861756929 377.85751496053 468.77261756929 C 376.25751496053 468.03661756929 373.66551496053 467.22061756929 370.08151496053 466.32461756929 C 366.24151496053 465.42861756929 363.04151496053 464.48461756929 360.48151496053 463.49261756929 C 357.92151496053 462.50061756929 355.71351496053 460.93261756929 353.85751496053 458.78861756929 C 352.00151496053 456.64461756929 351.07351496053 453.74861756929 351.07351496053 450.10061756929 C 351.07351496053 447.02861756929 351.92151496053 444.22861756929 353.61751496053 441.70061756929 C 355.31351496053 439.17261756929 357.80951496053 437.17261756929 361.10551496053 435.70061756929 C 364.40151496053 434.22861756929 368.32151496053 433.49261756929 372.86551496053 433.49261756929 C 379.58551496053 433.49261756929 384.88151496053 435.15661756929 388.75351496053 438.48461756929 C 392.62551496053 441.81261756929 394.84951496053 446.22861756929 395.42551496053 451.73261756929 L 380.25751496053 451.73261756929 C 380.00151496053 449.87661756929 379.18551496053 448.40461756929 377.80951496053 447.31661756929 C 376.43351496053 446.22861756929 374.62551496053 445.68461756929 372.38551496053 445.68461756929 C 370.46551496053 445.68461756929 368.99351496053 446.05261756929 367.96951496053 446.78861756929 C 366.94551496053 447.52461756929 366.43351496053 448.53261756929 366.43351496053 449.81261756929 C 366.43351496053 451.34861756929 367.24951496053 452.50061756929 368.88151496053 453.26861756929 C 370.51351496053 454.03661756929 373.05751496053 454.80461756929 376.51351496053 455.57261756929 C 380.48151496053 456.59661756929 383.71351496053 457.60461756929 386.20951496053 458.59661756929 C 388.70551496053 459.58861756929 390.89751496053 461.18861756929 392.78551496053 463.39661756929 C 394.67351496053 465.60461756929 395.64951496053 468.56461756929 395.71351496053 472.27661756929 C 395.71351496053 475.41261756929 394.83351496053 478.21261756929 393.07351496053 480.67661756929 C 391.31351496053 483.14061756929 388.78551496053 485.07661756929 385.48951496053 486.48461756929 C 382.19351496053 487.89261756929 378.36951496053 488.59661756929 374.01751496053 488.59661756929 C 369.34551496053 488.59661756929 365.18551496053 487.79661756929 361.53751496053 486.19661756929 Z M 456.00151496053 464.98061756929 L 418.84951496053 464.98061756929 C 419.10551496053 468.30861756929 420.17751496053 470.85261756929 422.06551496053 472.61261756929 C 423.95351496053 474.37261756929 426.27351496053 475.25261756929 429.02551496053 475.25261756929 C 433.12151496053 475.25261756929 435.96951496053 473.52461756929 437.56951496053 470.06861756929 L 455.04151496053 470.06861756929 C 454.14551496053 473.58861756929 452.52951496053 476.75661756929 450.19351496053 479.57261756929 C 447.85751496053 482.38861756929 444.92951496053 484.59661756929 441.40951496053 486.19661756929 C 437.88951496053 487.79661756929 433.95351496053 488.59661756929 429.60151496053 488.59661756929 C 424.35351496053 488.59661756929 419.68151496053 487.47661756929 415.58551496053 485.23661756929 C 411.48951496053 482.99661756929 408.28951496053 479.79661756929 405.98551496053 475.63661756929 C 403.68151496053 471.47661756929 402.52951496053 466.61261756929 402.52951496053 461.04461756929 C 402.52951496053 455.47661756929 403.66551496053 450.61261756929 405.93751496053 446.45261756929 C 408.20951496053 442.29261756929 411.39351496053 439.09261756929 415.48951496053 436.85261756929 C 419.58551496053 434.61261756929 424.28951496053 433.49261756929 429.60151496053 433.49261756929 C 434.78551496053 433.49261756929 439.39351496053 434.58061756929 443.42551496053 436.75661756929 C 447.45751496053 438.93261756929 450.60951496053 442.03661756929 452.88151496053 446.06861756929 C 455.15351496053 450.10061756929 456.28951496053 454.80461756929 456.28951496053 460.18061756929 C 456.28951496053 461.71661756929 456.19351496053 463.31661756929 456.00151496053 464.98061756929 Z M 439.48951496053 455.86061756929 C 439.48951496053 453.04461756929 438.52951496053 450.80461756929 436.60951496053 449.14061756929 C 434.68951496053 447.47661756929 432.28951496053 446.64461756929 429.40951496053 446.64461756929 C 426.65751496053 446.64461756929 424.33751496053 447.44461756929 422.44951496053 449.04461756929 C 420.56151496053 450.64461756929 419.39351496053 452.91661756929 418.94551496053 455.86061756929 L 439.48951496053 455.86061756929 Z M 508.80151496053 420.43661756929 L 508.80151496053 433.58861756929 L 481.34551496053 433.58861756929 L 481.34551496053 447.79661756929 L 501.88951496053 447.79661756929 L 501.88951496053 460.56461756929 L 481.34551496053 460.56461756929 L 481.34551496053 487.82861756929 L 464.92951496053 487.82861756929 L 464.92951496053 420.43661756929 L 508.80151496053 420.43661756929 Z M 533.85751496053 416.78861756929 L 533.85751496053 487.82861756929 L 517.44151496053 487.82861756929 L 517.44151496053 416.78861756929 L 533.85751496053 416.78861756929 Z M 555.98551496053 485.23661756929 C 551.79351496053 482.99661756929 548.49751496053 479.79661756929 546.09751496053 475.63661756929 C 543.69751496053 471.47661756929 542.49751496053 466.61261756929 542.49751496053 461.04461756929 C 542.49751496053 455.54061756929 543.71351496053 450.69261756929 546.14551496053 446.50061756929 C 548.57751496053 442.30861756929 551.90551496053 439.09261756929 556.12951496053 436.85261756929 C 560.35351496053 434.61261756929 565.08951496053 433.49261756929 570.33751496053 433.49261756929 C 575.58551496053 433.49261756929 580.32151496053 434.61261756929 584.54551496053 436.85261756929 C 588.76951496053 439.09261756929 592.09751496053 442.30861756929 594.52951496053 446.50061756929 C 596.96151496053 450.69261756929 598.17751496053 455.54061756929 598.17751496053 461.04461756929 C 598.17751496053 466.54861756929 596.94551496053 471.39661756929 594.48151496053 475.58861756929 C 592.01751496053 479.78061756929 588.65751496053 482.99661756929 584.40151496053 485.23661756929 C 580.14551496053 487.47661756929 575.39351496053 488.59661756929 570.14551496053 488.59661756929 C 564.89751496053 488.59661756929 560.17751496053 487.47661756929 555.98551496053 485.23661756929 Z M 578.16151496053 470.93261756929 C 580.36951496053 468.62861756929 581.47351496053 465.33261756929 581.47351496053 461.04461756929 C 581.47351496053 456.75661756929 580.40151496053 453.46061756929 578.25751496053 451.15661756929 C 576.11351496053 448.85261756929 573.47351496053 447.70061756929 570.33751496053 447.70061756929 C 567.13751496053 447.70061756929 564.48151496053 448.83661756929 562.36951496053 451.10861756929 C 560.25751496053 453.38061756929 559.20151496053 456.69261756929 559.20151496053 461.04461756929 C 559.20151496053 465.33261756929 560.24151496053 468.62861756929 562.32151496053 470.93261756929 C 564.40151496053 473.23661756929 567.00951496053 474.38861756929 570.14551496053 474.38861756929 C 573.28151496053 474.38861756929 575.95351496053 473.23661756929 578.16151496053 470.93261756929 Z M 683.80951496053 434.26061756929 L 669.31351496053 487.82861756929 L 651.16951496053 487.82861756929 L 642.72151496053 453.07661756929 L 633.98551496053 487.82861756929 L 615.93751496053 487.82861756929 L 601.34551496053 434.26061756929 L 617.76151496053 434.26061756929 L 625.34551496053 472.56461756929 L 634.36951496053 434.26061756929 L 651.74551496053 434.26061756929 L 660.86551496053 472.37261756929 L 668.35351496053 434.26061756929 L 683.80951496053 434.26061756929 Z"/></svg>